<svg id="Layer_1" data-name="Layer 1" xmlns="http://www.w3.org/2000/svg" viewBox="0 0 555.69 197.62"><defs><style>.cls-1{fill:#002e6e;}.cls-2{fill:#00a4ca;}.cls-3{fill:#042e90;}</style></defs><title>Jk Logo</title><rect class="cls-1" x="176.43" y="119.57" width="341.92" height="1"/><path class="cls-2" d="M189.2,94.93a18.47,18.47,0,0,0,5.08-.6,7,7,0,0,0,3.32-2,8,8,0,0,0,1.79-3.5,22.26,22.26,0,0,0,.53-5.22V52.41h10.63V83.64q0,26-21.35,26H176.43l6.9-14.72Z"/><path class="cls-2" d="M261.53,109.65h-16L235.22,94.59c-1.77-2.57-3.12-4.56-4.06-6S229.47,86,228.89,85c0,1.31.07,2.66.1,4.06s0,2.78,0,4.15v16.43H218.42V52.41H229V65.67c0,1.77,0,3.51,0,5.22s-.08,3.31-.15,4.79q1-1.55,2.48-3.81c1-1.51,2.23-3.35,3.8-5.52L245,52.41H260.3L247.23,68.83c-1.13,1.43-2.12,2.69-3,3.77s-1.65,2-2.33,2.82-1.3,1.52-1.86,2.14-1.12,1.23-1.66,1.8q1.49,1.71,3.57,4.28t5.42,7.1Z"/><path class="cls-2" d="M317.34,75.25q6.27,0,9.55,3.89t3.27,11.77a35,35,0,0,1-.82,7.87,15.7,15.7,0,0,1-2.61,5.91,11.79,11.79,0,0,1-4.57,3.68,15.86,15.86,0,0,1-6.66,1.28H283.68l6.79-14.72h25.84a3.52,3.52,0,0,0,2.76-1,4.81,4.81,0,0,0,.87-3.21,4.64,4.64,0,0,0-.87-3.17,3.62,3.62,0,0,0-2.76-.94H297.73a12.64,12.64,0,0,1-5.72-1.2,10.92,10.92,0,0,1-4-3.33,14.69,14.69,0,0,1-2.35-5.18,27.47,27.47,0,0,1-.76-6.72,29.54,29.54,0,0,1,.84-7.31,15.47,15.47,0,0,1,2.6-5.61,11.9,11.9,0,0,1,4.55-3.59,15.73,15.73,0,0,1,6.66-1.28h29.68l-6.8,14.88H298.75a3.85,3.85,0,0,0-2.74.86,4.23,4.23,0,0,0-.89,3.08,4.39,4.39,0,0,0,.89,3.12,3.72,3.72,0,0,0,2.74.9Z"/><path class="cls-2" d="M376.18,52.41l-6.84,14.88H357.13v42.36H346.56V67.29h-16l6.85-14.88Z"/><path class="cls-2" d="M384.1,109.65l6.38-14.48h11.77a21.93,21.93,0,0,1,2.89.17c-.48-1-1-2.29-1.66-3.83s-1.24-3-1.82-4.34l-6.12-14.9-16,37.38H367L388.9,58.72a17.67,17.67,0,0,1,2.7-4.38,5.38,5.38,0,0,1,8.15-.12,15.86,15.86,0,0,1,2.73,4.5l21.35,50.93Z"/><path class="cls-2" d="M468.69,94.93l-6.8,14.72H444.73a15.86,15.86,0,0,1-8.22-2.23,20.86,20.86,0,0,1-6.51-6.11,31.28,31.28,0,0,1-4.29-9.24,41.29,41.29,0,0,1-1.56-11.6,39.47,39.47,0,0,1,1.56-11.42,29.12,29.12,0,0,1,4.29-8.9,19.26,19.26,0,0,1,6.51-5.73,17.24,17.24,0,0,1,8.22-2h24l-6.8,14.88H444.73a8.11,8.11,0,0,0-4,1,9.68,9.68,0,0,0-3.16,2.87,14.38,14.38,0,0,0-2.1,4.4,19.79,19.79,0,0,0-.77,5.65,20.1,20.1,0,0,0,.74,5.61,13.59,13.59,0,0,0,2.1,4.32A9.8,9.8,0,0,0,440.75,94a8.4,8.4,0,0,0,4,1Z"/><path class="cls-2" d="M518.35,109.65h-16L492,94.59c-1.77-2.57-3.12-4.56-4.06-6S486.29,86,485.71,85c0,1.31.07,2.66.1,4.06s.06,2.78.06,4.15v16.43H475.24V52.41h10.63V65.67q0,2.65-.06,5.22c0,1.71-.08,3.31-.15,4.79q1-1.55,2.48-3.81t3.8-5.52l9.86-13.94h15.32L504.05,68.83c-1.13,1.43-2.12,2.69-3,3.77s-1.64,2-2.33,2.82-1.3,1.52-1.86,2.14-1.11,1.23-1.66,1.8q1.49,1.71,3.58,4.28t5.41,7.1Z"/><path class="cls-3" d="M190.65,127.5l-2.13,4.6h-3.8v13.11h-3.29V132.1h-5l2.13-4.6Z"/><path class="cls-3" d="M219.93,140.66l-2.12,4.55H207.57V127.5H219.9l-2.14,4.6h-6.88v2.12h8.43l-1.9,4h-6.53v2.41Z"/><path class="cls-3" d="M250.51,140.66l-2.12,4.55H243a5,5,0,0,1-2.56-.69,6.47,6.47,0,0,1-2-1.89,9.45,9.45,0,0,1-1.34-2.86,12.46,12.46,0,0,1-.49-3.59,11.86,11.86,0,0,1,.49-3.53,8.87,8.87,0,0,1,1.34-2.76,6,6,0,0,1,2-1.77,5.35,5.35,0,0,1,2.56-.62h7.47l-2.12,4.6H243a2.57,2.57,0,0,0-1.24.32,3,3,0,0,0-1,.89,4.19,4.19,0,0,0-.65,1.36,6,6,0,0,0-.24,1.75,5.84,5.84,0,0,0,.23,1.73,4.08,4.08,0,0,0,.65,1.34,3,3,0,0,0,1,.86,2.68,2.68,0,0,0,1.24.31Z"/><path class="cls-3" d="M280.48,145.21H277.2v-6.83h-6.33v6.83h-3.31V127.5h3.31v6.27h6.33V127.5h3.28Z"/><path class="cls-3" d="M309.2,145.21a1.25,1.25,0,0,1-.63-.17,2.13,2.13,0,0,1-.69-.75l-6.53-9.44v10.08h-3V130.7a6.24,6.24,0,0,1,.15-1.46,3.47,3.47,0,0,1,.4-1,1.68,1.68,0,0,1,.57-.56,1.41,1.41,0,0,1,.68-.18,1.26,1.26,0,0,1,.61.16,2.29,2.29,0,0,1,.71.76l6.52,9.43V127.78h3V142a6.24,6.24,0,0,1-.15,1.46,3.27,3.27,0,0,1-.4,1,1.53,1.53,0,0,1-.58.58A1.41,1.41,0,0,1,309.2,145.21Z"/><path class="cls-3" d="M336.31,127.5q3.88,0,5.83,2.12t1.95,6.72c0,3.08-.65,5.32-1.94,6.74s-3.24,2.13-5.84,2.13-4.56-.71-5.85-2.13-1.93-3.66-1.93-6.74.64-5.3,1.94-6.72S333.71,127.5,336.31,127.5Zm0,13.25a11.34,11.34,0,0,0,2.1-.17,2.86,2.86,0,0,0,1.39-.65,2.71,2.71,0,0,0,.77-1.35,10.57,10.57,0,0,0,0-4.48,2.72,2.72,0,0,0-.77-1.34,3,3,0,0,0-1.39-.64,13.86,13.86,0,0,0-4.2,0,2.94,2.94,0,0,0-1.39.64,2.73,2.73,0,0,0-.78,1.34,10.57,10.57,0,0,0,0,4.48,2.72,2.72,0,0,0,.78,1.35,2.77,2.77,0,0,0,1.39.65A11.26,11.26,0,0,0,336.31,140.75Z"/><path class="cls-3" d="M373.2,140.66l-2.13,4.55h-9.4V127.5H365v13.16Z"/><path class="cls-3" d="M397.24,127.5q3.88,0,5.83,2.12t1.95,6.72c0,3.08-.64,5.32-1.94,6.74s-3.24,2.13-5.84,2.13-4.56-.71-5.84-2.13-1.94-3.66-1.94-6.74.65-5.3,1.94-6.72S394.64,127.5,397.24,127.5Zm0,13.25a11.26,11.26,0,0,0,2.1-.17,2.77,2.77,0,0,0,1.39-.65,2.72,2.72,0,0,0,.78-1.35,11,11,0,0,0,0-4.48,2.73,2.73,0,0,0-.78-1.34,2.94,2.94,0,0,0-1.39-.64,13.86,13.86,0,0,0-4.2,0,3,3,0,0,0-1.39.64,2.72,2.72,0,0,0-.77,1.34,10.57,10.57,0,0,0,0,4.48,2.71,2.71,0,0,0,.77,1.35,2.86,2.86,0,0,0,1.39.65A11.34,11.34,0,0,0,397.24,140.75Z"/><path class="cls-3" d="M429.17,134.14H436v11.07h-7.3a5,5,0,0,1-2.56-.69,6.5,6.5,0,0,1-2-1.89,9.7,9.7,0,0,1-1.34-2.86,12.83,12.83,0,0,1-.48-3.59,12.2,12.2,0,0,1,.48-3.53,9.09,9.09,0,0,1,1.34-2.76,6,6,0,0,1,2-1.77,5.32,5.32,0,0,1,2.56-.62h7.62l-2.13,4.6h-5.49a2.54,2.54,0,0,0-1.24.32,3,3,0,0,0-1,.9,4.25,4.25,0,0,0-.66,1.37,6.49,6.49,0,0,0,0,3.46,4.08,4.08,0,0,0,.65,1.34,3,3,0,0,0,1,.86,2.7,2.7,0,0,0,1.26.31h4v-2.57H427.2Z"/><path class="cls-3" d="M457.13,145.21h-3.3V127.5h3.3Z"/><path class="cls-3" d="M487.45,140.66l-2.11,4.55H475.09V127.5h12.33l-2.13,4.6H478.4v2.12h8.43l-1.89,4H478.4v2.41Z"/><path class="cls-3" d="M514.35,134.57a3.69,3.69,0,0,1,3,1.2,5.53,5.53,0,0,1,1,3.64,10.74,10.74,0,0,1-.26,2.44,4.83,4.83,0,0,1-.81,1.82,3.53,3.53,0,0,1-1.42,1.14,4.89,4.89,0,0,1-2.08.4h-9.91l2.12-4.55h8a1.09,1.09,0,0,0,.85-.31,1.41,1.41,0,0,0,.28-1,1.37,1.37,0,0,0-.28-1,1.12,1.12,0,0,0-.85-.29h-5.8a4.07,4.07,0,0,1-1.78-.37,3.38,3.38,0,0,1-1.24-1,4.45,4.45,0,0,1-.73-1.6,8.37,8.37,0,0,1-.24-2.08,9.29,9.29,0,0,1,.26-2.26,4.71,4.71,0,0,1,.82-1.73,3.64,3.64,0,0,1,1.41-1.12,5,5,0,0,1,2.08-.39h9.24l-2.12,4.6h-7.38a1.19,1.19,0,0,0-.85.27,1.31,1.31,0,0,0-.28.95,1.39,1.39,0,0,0,.28,1,1.19,1.19,0,0,0,.85.28Z"/><rect class="cls-3" x="91.86" y="29.07" width="37.28" height="11.31"/><path class="cls-3" d="M135.25,70.84v29.55h0a60.32,60.32,0,0,1-.88,8.78l9.52,9.52a66.06,66.06,0,0,0,2.63-18.44V59.53Z"/><path class="cls-3" d="M132.93,115.58l-7.1-6.93-14.24-13.9-4.48-4.38,38.32-38.32L146.56,51c-1.17-.66-.36.35,0,0V29.07H135.23V46.25L85.72,95.76v16L99.11,98.37l4.58,4.48,7.11,6.94,7.12,6.95,7.12,7,3.26,3.06a54.71,54.71,0,0,1-23.69,22.88L92,155.91v12.64l17.68-8.79a66.1,66.1,0,0,0,32.28-35.19l-9-9Z"/><path class="cls-2" d="M85.82,152.87l-6.52-3.24A55.24,55.24,0,0,1,50,111.82l-.07,0L37.35,99.17a66.57,66.57,0,0,0,36.91,60.59l11.56,5.74Z"/><rect class="cls-2" x="74.5" y="29.07" width="11.32" height="125.95"/><path class="cls-2" d="M68.47,29.07H37.34V91.22l11.32,11.31V40.38h19.8Z"/></svg>